<svg width="80" height="80" viewBox="0 0 80 80" fill="none" xmlns="http://www.w3.org/2000/svg">
<g clip-path="url(#clip0_727_2275)">
<path d="M61.25 0H18.75C8.39466 0 0 8.39466 0 18.75V61.25C0 71.6053 8.39466 80 18.75 80H61.25C71.6053 80 80 71.6053 80 61.25V18.75C80 8.39466 71.6053 0 61.25 0Z" fill="#007ACC"/>
<path d="M17.6908 40.2654L17.6655 43.5416H28.078V73.1288H35.4433V43.5416H45.8558V40.3288C45.8558 38.551 45.818 37.0654 45.7671 37.0273C45.729 36.9766 39.3924 36.951 31.7099 36.9638L17.729 37.002L17.6908 40.2654ZM64.5521 36.9088C66.5837 37.417 68.133 38.3185 69.5552 39.7913C70.2918 40.5788 71.3837 42.0138 71.4727 42.3566C71.498 42.4582 68.0187 44.7948 65.9108 46.1026C65.8346 46.1535 65.5296 45.8232 65.1868 45.3154C64.1583 43.817 63.079 43.1691 61.428 43.0551C59.0027 42.8898 57.4408 44.1598 57.4537 46.2804C57.4537 46.9026 57.5424 47.2707 57.7965 47.7788C58.3296 48.8835 59.3202 49.5438 62.4315 50.8898C68.1583 53.3535 70.609 54.9788 72.133 57.2898C73.8346 59.8676 74.2155 63.982 73.0599 67.0423C71.7902 70.3691 68.6408 72.6295 64.209 73.3788C62.8377 73.6201 59.5868 73.582 58.114 73.3154C54.9012 72.7438 51.8537 71.1566 49.9743 69.0741C49.2377 68.2613 47.8027 66.1407 47.8918 65.9882C47.9296 65.9376 48.2599 65.7345 48.628 65.5185C48.9837 65.3154 50.3299 64.5407 51.5996 63.8041L53.898 62.4707L54.3805 63.182C55.0537 64.2104 56.5265 65.6201 57.4155 66.0898C59.9677 67.436 63.4727 67.2454 65.1996 65.6963C65.9362 65.0232 66.2408 64.3248 66.2408 63.2963C66.2408 62.3691 66.1265 61.9629 65.644 61.2645C65.0218 60.3757 63.7521 59.6263 60.1455 58.0645C56.0187 56.2866 54.2408 55.182 52.6155 53.4295C51.6758 52.4138 50.7868 50.7882 50.4187 49.4295C50.114 48.2995 50.0377 45.4676 50.279 44.3248C51.1296 40.3376 54.1393 37.5566 58.4821 36.731C59.8918 36.4645 63.1677 36.566 64.5521 36.9088Z" fill="white"/>
</g>
<defs>
<clipPath id="clip0_727_2275">
<rect width="80" height="80" fill="white"/>
</clipPath>
</defs>
</svg>
