<svg width="50" height="50" viewBox="0 0 50 50" fill="none" xmlns="http://www.w3.org/2000/svg">
<circle cx="25" cy="25" r="25" fill="#F4F2ED"/>
<mask id="mask0_875_932" style="mask-type:luminance" maskUnits="userSpaceOnUse" x="9" y="9" width="32" height="32">
<path d="M9 9H41V41H9V9Z" fill="white"/>
</mask>
<g mask="url(#mask0_875_932)">
<path d="M10.9255 10.3802L28.6319 9.07245C30.807 8.88594 31.3658 9.01156 32.7334 10.0059L38.3855 13.9877C39.3177 14.6725 39.6282 14.859 39.6282 15.6047V37.4424C39.6282 38.8111 39.1312 39.6206 37.3913 39.7442L16.8294 40.9896C15.5238 41.0512 14.9021 40.8647 14.2182 39.9934L10.056 34.5808C9.30939 33.5848 9 32.8391 9 31.9674V12.5562C9 11.4372 9.49701 10.504 10.9255 10.3802Z" fill="white"/>
<path fill-rule="evenodd" clip-rule="evenodd" d="M28.6319 9.073L10.9255 10.3808C9.49701 10.5042 9 11.4377 9 12.5564V31.9676C9 32.8389 9.30939 33.5846 10.056 34.581L14.2182 39.9932C14.9021 40.8645 15.5238 41.0514 16.8294 40.9894L37.3917 39.7445C39.1303 39.6207 39.6284 38.8112 39.6284 37.4429V15.605C39.6284 14.8979 39.3492 14.694 38.5267 14.0906L32.7334 10.0059C31.366 9.01156 30.807 8.88594 28.6319 9.07245V9.073ZM17.2944 15.2475C15.6154 15.3605 15.2345 15.3861 14.2809 14.6108L11.8566 12.6824C11.6103 12.433 11.7341 12.1216 12.3549 12.0594L29.3767 10.8156C30.8061 10.6909 31.5505 11.189 32.1095 11.6242L35.0288 13.7395C35.1535 13.8024 35.464 14.1747 35.0906 14.1747L17.512 15.2329L17.2944 15.2475ZM15.3369 37.2562V18.7176C15.3369 17.9081 15.5856 17.5345 16.3298 17.472L36.52 16.2898C37.2048 16.2282 37.5142 16.6634 37.5142 17.4716V35.8866C37.5142 36.6963 37.3895 37.3811 36.2717 37.4429L16.951 38.5629C15.8334 38.6245 15.3373 38.2524 15.3373 37.2562H15.3369ZM34.4089 19.7116C34.5329 20.2717 34.4089 20.8316 33.849 20.8956L32.9177 21.0803V34.7677C32.1091 35.2029 31.3647 35.4514 30.7428 35.4514C29.7484 35.4514 29.5001 35.14 28.7555 34.2076L22.666 24.6268V33.8962L24.5924 34.3325C24.5924 34.3325 24.5924 35.4525 23.0381 35.4525L18.7532 35.701C18.6285 35.4514 18.7532 34.8297 19.1875 34.7059L20.3066 34.3954V22.1394L18.7536 22.0138C18.6287 21.4537 18.9392 20.6451 19.8096 20.5824L24.407 20.273L30.743 29.9776V21.3919L29.128 21.2063C29.0033 20.5206 29.5001 20.0223 30.1209 19.9616L34.4089 19.7116Z" fill="black"/>
</g>
</svg>
