<svg width="50" height="50" viewBox="0 0 50 50" fill="none" xmlns="http://www.w3.org/2000/svg">
<circle cx="25" cy="25" r="25" fill="#F4F2ED"/>
<mask id="mask0_875_932" style="mask-type:luminance" maskUnits="userSpaceOnUse" x="8" y="7" width="35" height="35">
<path d="M8 7H43V42H8V7Z" fill="white"/>
</mask>
<g mask="url(#mask0_875_932)">
<path d="M10.106 8.50967L29.4724 7.07927C31.8514 6.87527 32.4626 7.01267 33.9584 8.10027L40.1404 12.4553C41.16 13.2043 41.4996 13.4083 41.4996 14.2239V38.1089C41.4996 39.6059 40.956 40.4913 39.053 40.6265L16.5634 41.9887C15.1354 42.0561 14.4554 41.8521 13.7074 40.8991L9.155 34.9791C8.3384 33.8897 8 33.0741 8 32.1207V10.8897C8 9.66567 8.5436 8.64507 10.106 8.50967Z" fill="white"/>
<path fill-rule="evenodd" clip-rule="evenodd" d="M29.4724 7.07986L10.106 8.51026C8.5436 8.64526 8 9.66627 8 10.8899V32.1209C8 33.0739 8.3384 33.8895 9.155 34.9793L13.7074 40.8989C14.4554 41.8519 15.1354 42.0563 16.5634 41.9885L39.0534 40.6269C40.955 40.4915 41.4998 39.6061 41.4998 38.1095V14.2243C41.4998 13.4509 41.1944 13.2279 40.2948 12.5679L33.9584 8.10027C32.4628 7.01267 31.8514 6.87527 29.4724 7.07927V7.07986ZM17.072 13.8333C15.2356 13.9569 14.819 13.9849 13.776 13.1369L11.1244 11.0277C10.855 10.7549 10.9904 10.4143 11.6694 10.3463L30.287 8.98587C31.8504 8.84947 32.6646 9.39426 33.276 9.87026L36.469 12.1839C36.6054 12.2527 36.945 12.6599 36.5366 12.6599L17.31 13.8173L17.072 13.8333ZM14.931 37.9053V17.6287C14.931 16.7433 15.203 16.3347 16.017 16.2663L38.1 14.9733C38.849 14.9059 39.1874 15.3819 39.1874 16.2659V36.4073C39.1874 37.2929 39.051 38.0419 37.8284 38.1095L16.6964 39.3345C15.474 39.4019 14.9314 38.9949 14.9314 37.9053H14.931ZM35.791 18.7159C35.9266 19.3285 35.791 19.9409 35.1786 20.0109L34.16 20.2129V35.1835C33.2756 35.6595 32.4614 35.9313 31.7812 35.9313C30.6936 35.9313 30.422 35.5907 29.6076 34.5709L22.9472 24.0919V34.2303L25.0542 34.7075C25.0542 34.7075 25.0542 35.9325 23.3542 35.9325L18.6676 36.2043C18.5312 35.9313 18.6676 35.2513 19.1426 35.1159L20.3666 34.7763V21.3713L18.668 21.2339C18.5314 20.6213 18.871 19.7369 19.823 19.6683L24.8514 19.3299L31.7814 29.9443V20.5537L30.015 20.3507C29.8786 19.6007 30.422 19.0557 31.101 18.9893L35.791 18.7159Z" fill="black"/>
</g>
</svg>
