<svg width="63" height="63" viewBox="0 0 63 63" fill="none" xmlns="http://www.w3.org/2000/svg">
<circle cx="31.4842" cy="31.5477" r="30.5274" stroke="black" stroke-width="1.85014"/>
<path fill-rule="evenodd" clip-rule="evenodd" d="M31.6899 26.0901V28.6779C32.2318 27.8524 32.9788 27.1818 33.8578 26.7316C34.7367 26.2815 35.7174 26.0673 36.704 26.1099C41.9728 26.1099 43.1119 29.4038 43.1119 33.689V42.4133H38.232V34.6787C38.232 32.8335 37.8599 30.4606 34.9869 30.4606C32.2008 30.4606 31.725 32.469 31.725 34.5414V42.4133H26.8603V26.0901H31.6899ZM23.5923 21.9879C23.5917 22.4713 23.4484 22.9438 23.1804 23.3461C22.9124 23.7484 22.5316 24.0627 22.0857 24.2494C21.64 24.4347 21.1492 24.4832 20.6759 24.3887C20.2026 24.2942 19.768 24.061 19.4276 23.7188C19.0866 23.3763 18.8544 22.9407 18.7603 22.4667C18.6662 21.9927 18.7143 21.5014 18.8987 21.0547C19.083 20.6079 19.3953 20.2257 19.7963 19.956C20.1973 19.6862 20.6691 19.5411 21.1524 19.5388C21.4736 19.5388 21.7916 19.6022 22.0882 19.7254C22.3849 19.8486 22.6542 20.0292 22.8809 20.2567C23.1076 20.4842 23.2872 20.7543 23.4092 21.0514C23.5313 21.3485 23.5935 21.6667 23.5923 21.9879Z" fill="black"/>
<path d="M23.5923 26.1099H18.7124V42.4133H23.5923V26.1099Z" fill="black"/>
</svg>
