<svg width="50" height="50" viewBox="0 0 50 50" fill="none" xmlns="http://www.w3.org/2000/svg">
<circle cx="25" cy="25" r="25" fill="#330000"/>
<path d="M23.8926 30.152H17.2681L15.9201 34.4395C15.9018 34.5177 15.8574 34.5869 15.7946 34.6351C15.7317 34.6834 15.6544 34.7077 15.576 34.7038H12.2206C12.0294 34.7038 11.9625 34.5961 12.0199 34.3806L17.7555 17.4658C17.8129 17.2897 17.8702 17.089 17.9275 16.8639C18.0027 16.472 18.0411 16.0739 18.0423 15.6746C18.0384 15.6467 18.0409 15.6182 18.0496 15.5914C18.0583 15.5646 18.0729 15.5403 18.0924 15.5204C18.1119 15.5004 18.1356 15.4854 18.1618 15.4764C18.1879 15.4675 18.2157 15.4649 18.243 15.4689H22.8028C22.9364 15.4689 23.0129 15.5179 23.0323 15.6159L29.5421 34.41C29.5994 34.6061 29.5421 34.7041 29.3701 34.7038H25.6418C25.5778 34.711 25.5135 34.6941 25.4607 34.6563C25.408 34.6185 25.3705 34.5623 25.3551 34.4983L23.8926 30.152ZM18.3004 26.4519H22.8316L22.7669 26.2336L22.6632 25.8878L22.5893 25.645L22.4712 25.2627L22.2202 24.4578L21.9994 23.7442L21.4262 21.8854C21.2835 21.4234 21.1465 20.9595 21.0154 20.4938L20.9105 20.1159L20.7879 19.6691L20.6009 18.9766L20.5658 18.8461H20.5373C20.3937 19.551 20.219 20.2488 20.0136 20.9374L19.5881 22.3389L19.354 23.1132L19.1177 23.8971C19.075 24.0386 19.0325 24.1786 18.9899 24.317L18.863 24.7271L18.7368 25.1276L18.6112 25.5181L18.4863 25.8989C18.4449 26.0243 18.4035 26.148 18.3622 26.27L18.3004 26.4519ZM33.4133 18.5817C33.1208 18.5937 32.8291 18.5424 32.5573 18.431C32.2856 18.3197 32.0398 18.1509 31.836 17.9357C31.633 17.711 31.4753 17.4475 31.3719 17.1602C31.2685 16.873 31.2216 16.5677 31.2337 16.2618C31.2233 15.959 31.2754 15.6573 31.3866 15.3765C31.4978 15.0957 31.6655 14.8421 31.879 14.6322C32.2906 14.2275 32.8388 14.0011 33.4094 14L33.4705 14.0007C34.1589 14.0007 34.699 14.2111 35.091 14.632C35.2888 14.8508 35.4426 15.1073 35.5434 15.387C35.6443 15.6666 35.6903 15.9639 35.6788 16.2618C35.691 16.5689 35.6426 16.8754 35.5367 17.163C35.4308 17.4506 35.2695 17.7134 35.0623 17.9359C34.8532 18.1469 34.605 18.3129 34.3324 18.4242C34.0597 18.5355 33.768 18.5898 33.4746 18.584L33.4133 18.5817ZM31.4344 34.41V20.3731C31.4343 20.1969 31.5108 20.1088 31.6639 20.1088H35.1914C35.3442 20.1088 35.4207 20.1969 35.4208 20.3731V34.41C35.4208 34.6061 35.3443 34.7041 35.1914 34.7038H31.6926C31.5296 34.7038 31.4438 34.6159 31.4353 34.4401L31.4344 34.41Z" fill="#FF9A00"/>
</svg>
