<svg width="63" height="63" viewBox="0 0 63 63" fill="none" xmlns="http://www.w3.org/2000/svg">
<circle cx="31.4525" cy="31.5477" r="30.5274" stroke="black" stroke-width="1.85014"/>
<g clip-path="url(#clip0_544_337)">
<path d="M46.8928 21.8973V41.1977C46.8928 42.293 46.0581 43.1277 44.9628 43.1277H43.0327V25.6117L31.4525 33.9302L19.8723 25.6117V43.1277H17.9422C16.8469 43.1277 16.0122 42.293 16.0122 41.1977V21.8973C16.0122 21.3492 16.2187 20.8667 16.5652 20.5251C16.7455 20.3444 16.9604 20.2019 17.197 20.1061C17.4335 20.0103 17.687 19.9631 17.9422 19.9673H18.5859L31.4525 29.2961L44.3191 19.9673H44.9628C45.5109 19.9673 45.9934 20.1738 46.3398 20.5251C46.6863 20.8667 46.8928 21.3492 46.8928 21.8973Z" fill="black"/>
</g>
<defs>
<clipPath id="clip0_544_337">
<rect width="30.8806" height="30.8806" fill="white" transform="translate(16.0122 16.1072)"/>
</clipPath>
</defs>
</svg>
