<svg width="80" height="80" viewBox="0 0 80 80" fill="none" xmlns="http://www.w3.org/2000/svg">
<g clip-path="url(#clip0_726_1982)">
<mask id="mask0_726_1982" style="mask-type:luminance" maskUnits="userSpaceOnUse" x="-1" y="0" width="81" height="80">
<path d="M56.5067 79.5616C57.1408 79.8109 57.819 79.9259 58.4991 79.8996C59.1792 79.8732 59.8466 79.7061 60.4599 79.4086L76.8664 71.452C77.7114 71.042 78.4244 70.3999 78.9233 69.5995C79.4222 68.7992 79.6869 67.8732 79.6867 66.9279V12.9764C79.6868 12.0313 79.4221 11.1053 78.9232 10.305C78.4243 9.50477 77.7114 8.86269 76.8664 8.45267L60.4602 0.495819C59.5331 0.0463534 58.4903 -0.101606 57.4762 0.0724125C56.462 0.246431 55.5265 0.733824 54.7992 1.46716L23.3908 30.3475L9.70957 19.8807C9.09244 19.4086 8.33079 19.1691 7.55676 19.2037C6.78274 19.2384 6.04518 19.5451 5.47207 20.0706L1.08426 24.0936C-0.362616 25.4199 -0.364179 27.7141 1.08051 29.0426L12.9452 39.9522L1.08051 50.8615C-0.364179 52.1903 -0.362616 54.4842 1.08426 55.8108L5.47207 59.8335C6.04515 60.359 6.78268 60.6657 7.5567 60.7005C8.33073 60.7352 9.0924 60.4958 9.70957 60.0237L23.3908 49.5566L54.7992 78.4369C55.2848 78.9272 55.8663 79.3102 56.5067 79.5616M59.7767 21.7194L35.9449 39.9522L59.7767 58.1846V21.7194Z" fill="white"/>
</mask>
<g mask="url(#mask0_726_1982)">
<path d="M76.9156 8.46557L60.4963 0.497695C59.569 0.0477265 58.5258 -0.100625 57.5112 0.0731702C56.4965 0.246965 55.5606 0.734313 54.8328 1.46777L1.08158 50.8621C-0.364042 52.1909 -0.362167 54.4848 1.08533 55.8114L5.47596 59.8341C6.04954 60.3597 6.78754 60.6665 7.56202 60.7013C8.33649 60.736 9.09862 60.4965 9.71627 60.0243L74.445 10.5327C76.6166 8.8725 79.7356 10.4334 79.7356 13.1805V12.9884C79.7355 12.0434 79.4709 11.1177 78.972 10.3176C78.4731 9.51752 77.7604 8.87557 76.9156 8.46557Z" fill="#0065A9"/>
</g>
<mask id="mask1_726_1982" style="mask-type:luminance" maskUnits="userSpaceOnUse" x="-1" y="0" width="81" height="80">
<path d="M56.5067 79.5616C57.1408 79.8109 57.819 79.9259 58.4991 79.8996C59.1792 79.8732 59.8466 79.7061 60.4599 79.4086L76.8664 71.452C77.7114 71.042 78.4244 70.3999 78.9233 69.5995C79.4222 68.7992 79.6869 67.8732 79.6867 66.9279V12.9764C79.6868 12.0313 79.4221 11.1053 78.9232 10.305C78.4243 9.50477 77.7114 8.86269 76.8664 8.45267L60.4602 0.495819C59.5331 0.0463534 58.4903 -0.101606 57.4762 0.0724125C56.462 0.246431 55.5265 0.733824 54.7992 1.46716L23.3908 30.3475L9.70957 19.8807C9.09244 19.4086 8.33079 19.1691 7.55676 19.2037C6.78274 19.2384 6.04518 19.5451 5.47207 20.0706L1.08426 24.0936C-0.362616 25.4199 -0.364179 27.7141 1.08051 29.0426L12.9452 39.9522L1.08051 50.8615C-0.364179 52.1903 -0.362616 54.4842 1.08426 55.8108L5.47207 59.8335C6.04515 60.359 6.78268 60.6657 7.5567 60.7005C8.33073 60.7352 9.0924 60.4958 9.70957 60.0237L23.3908 49.5566L54.7992 78.4369C55.2848 78.9272 55.8663 79.3102 56.5067 79.5616M59.7767 21.7194L35.9449 39.9522L59.7767 58.1846V21.7194Z" fill="white"/>
</mask>
<g mask="url(#mask1_726_1982)">
<path d="M76.9156 71.438L60.4963 79.4059C59.5689 79.8557 58.5258 80.0039 57.5112 79.8301C56.4967 79.6563 55.5607 79.1691 54.8328 78.4358L1.08158 29.0415C-0.364042 27.713 -0.362167 25.4188 1.08533 24.0925L5.47596 20.0695C6.04958 19.5439 6.7876 19.2372 7.56207 19.2025C8.33655 19.1678 9.09865 19.4074 9.71627 19.8796L74.445 69.371C76.6166 71.0311 79.7356 69.4702 79.7356 66.7228V66.9152C79.7355 67.8602 79.4709 68.7859 78.972 69.586C78.4731 70.3861 77.7604 71.028 76.9156 71.438Z" fill="#007ACC"/>
</g>
<mask id="mask2_726_1982" style="mask-type:luminance" maskUnits="userSpaceOnUse" x="-1" y="0" width="81" height="80">
<path d="M56.5067 79.5616C57.1408 79.8109 57.819 79.9259 58.4991 79.8996C59.1792 79.8732 59.8466 79.7061 60.4599 79.4086L76.8664 71.452C77.7114 71.042 78.4244 70.3999 78.9233 69.5995C79.4222 68.7992 79.6869 67.8732 79.6867 66.9279V12.9764C79.6868 12.0313 79.4221 11.1053 78.9232 10.305C78.4243 9.50477 77.7114 8.86269 76.8664 8.45267L60.4602 0.495819C59.5331 0.0463534 58.4903 -0.101606 57.4762 0.0724125C56.462 0.246431 55.5265 0.733824 54.7992 1.46716L23.3908 30.3475L9.70957 19.8807C9.09244 19.4086 8.33079 19.1691 7.55676 19.2037C6.78274 19.2384 6.04518 19.5451 5.47207 20.0706L1.08426 24.0936C-0.362616 25.4199 -0.364179 27.7141 1.08051 29.0426L12.9452 39.9522L1.08051 50.8615C-0.364179 52.1903 -0.362616 54.4842 1.08426 55.8108L5.47207 59.8335C6.04515 60.359 6.78268 60.6657 7.5567 60.7005C8.33073 60.7352 9.0924 60.4958 9.70957 60.0237L23.3908 49.5566L54.7992 78.4369C55.2848 78.9272 55.8663 79.3102 56.5067 79.5616M59.7767 21.7194L35.9449 39.9522L59.7767 58.1846V21.7194Z" fill="white"/>
</mask>
<g mask="url(#mask2_726_1982)">
<path d="M60.4453 79.4115C59.5178 79.8613 58.4745 80.0094 57.4598 79.8355C56.4451 79.6615 55.5091 79.174 54.7812 78.4405C56.6191 80.2925 59.7619 78.9807 59.7619 76.3608V3.54982C59.7619 0.92998 56.6191 -0.38183 54.7812 1.47045C55.509 0.736853 56.445 0.249326 57.4597 0.0753102C58.4745 -0.0987053 59.5178 0.0493914 60.4453 0.499114L76.8619 8.45596C77.7071 8.86576 78.4204 9.50774 78.9196 10.308C79.4188 11.1083 79.6837 12.0344 79.6838 12.9797V66.9315C79.6838 68.8607 78.5869 70.6194 76.8619 71.4553L60.4453 79.4115Z" fill="#1F9CF0"/>
</g>
<mask id="mask3_726_1982" style="mask-type:luminance" maskUnits="userSpaceOnUse" x="-1" y="0" width="81" height="80">
<path d="M56.5067 79.5616C57.1408 79.8109 57.819 79.9259 58.4991 79.8996C59.1792 79.8732 59.8466 79.7061 60.4599 79.4086L76.8664 71.452C77.7114 71.042 78.4244 70.3999 78.9233 69.5995C79.4222 68.7992 79.6869 67.8732 79.6867 66.9279V12.9764C79.6868 12.0313 79.4221 11.1053 78.9232 10.305C78.4243 9.50477 77.7114 8.86269 76.8664 8.45267L60.4602 0.495819C59.5331 0.0463534 58.4903 -0.101606 57.4762 0.0724125C56.462 0.246431 55.5265 0.733824 54.7992 1.46716L23.3908 30.3475L9.70957 19.8807C9.09244 19.4086 8.33079 19.1691 7.55676 19.2037C6.78274 19.2384 6.04518 19.5451 5.47207 20.0706L1.08426 24.0936C-0.362616 25.4199 -0.364179 27.7141 1.08051 29.0426L12.9452 39.9522L1.08051 50.8615C-0.364179 52.1903 -0.362616 54.4842 1.08426 55.8108L5.47207 59.8335C6.04515 60.359 6.78268 60.6657 7.5567 60.7005C8.33073 60.7352 9.0924 60.4958 9.70957 60.0237L23.3908 49.5566L54.7992 78.4369C55.2848 78.9272 55.8663 79.3102 56.5067 79.5616M59.7767 21.7194L35.9449 39.9522L59.7767 58.1846V21.7194Z" fill="white"/>
</mask>
<g mask="url(#mask3_726_1982)">
<path d="M56.5072 79.5614C57.1413 79.8106 57.8195 79.9256 58.4996 79.8993C59.1797 79.873 59.8471 79.7058 60.4604 79.4083L76.8666 71.4515C77.7116 71.0415 78.4246 70.3994 78.9236 69.5991C79.4226 68.7989 79.6873 67.8729 79.6872 66.9277V12.9762C79.6873 12.031 79.4226 11.105 78.9237 10.3048C78.4248 9.50449 77.7119 8.86241 76.8669 8.45239L60.46 0.495228C59.533 0.0458351 58.4903 -0.102085 57.4762 0.0719319C56.4621 0.245949 55.5267 0.7333 54.7994 1.46657L23.3913 30.3472L9.71006 19.8804C9.09293 19.4083 8.33127 19.1688 7.55725 19.2035C6.78322 19.2382 6.04567 19.5449 5.47256 20.0703L1.08475 24.0933C-0.362128 25.4196 -0.36369 27.7138 1.081 29.0423L12.9457 39.9519L1.081 50.8612C-0.36369 52.19 -0.362128 54.4839 1.08475 55.8105L5.47256 59.8332C6.04563 60.3587 6.78317 60.6655 7.55719 60.7002C8.33122 60.735 9.09289 60.4955 9.71006 60.0234L23.3913 49.5563L54.7994 78.4366C55.2854 78.9266 55.8669 79.3096 56.5072 79.5614ZM59.7772 21.7189L35.9454 39.9519L59.7772 58.1844V21.7189Z" fill="url(#paint0_linear_726_1982)" fill-opacity="0.25"/>
</g>
</g>
<defs>
<linearGradient id="paint0_linear_726_1982" x1="3984.43" y1="0.000976562" x2="3984.43" y2="7990.2" gradientUnits="userSpaceOnUse">
<stop stop-color="white"/>
<stop offset="1" stop-color="white" stop-opacity="0"/>
</linearGradient>
<clipPath id="clip0_726_1982">
<rect width="80" height="80" fill="white"/>
</clipPath>
</defs>
</svg>
