<svg width="80" height="80" viewBox="0 0 80 80" fill="none" xmlns="http://www.w3.org/2000/svg">
<path d="M39.9995 46.1851C43.4513 46.1851 46.2495 43.3868 46.2495 39.9351C46.2495 36.4833 43.4513 33.6851 39.9995 33.6851C36.5477 33.6851 33.7495 36.4833 33.7495 39.9351C33.7495 43.3868 36.5477 46.1851 39.9995 46.1851Z" fill="#00D8FF"/>
<path d="M39.9995 54.2654C32.4874 54.4465 24.9941 53.4339 17.7995 51.2654C14.4761 50.2119 11.3763 48.5523 8.65701 46.3704C7.61898 45.6254 6.75457 44.6645 6.12321 43.5536C5.49185 42.4428 5.1085 41.2085 4.99951 39.9354C4.99951 35.8029 9.53951 31.7529 17.1445 29.1029C24.5318 26.7567 32.2494 25.6187 39.9995 25.7329C47.6462 25.6272 55.2606 26.7446 62.5545 29.0429C65.7547 30.0645 68.7491 31.6438 71.3995 33.7079C72.4183 34.4196 73.2687 35.3461 73.8907 36.4221C74.5127 37.498 74.8912 38.6973 74.9995 39.9354C74.9995 44.2304 69.9245 48.5829 61.7495 51.2879C54.6943 53.3863 47.3591 54.3905 39.9995 54.2654ZM39.9995 28.7229C32.5849 28.626 25.2021 29.7078 18.127 31.9279C11.127 34.3704 7.98951 37.7104 7.98951 39.9279C7.98951 42.2479 11.362 45.8954 18.767 48.4279C25.6496 50.493 32.816 51.4541 39.9995 51.2754C47.0405 51.4013 54.0593 50.4486 60.812 48.4504C68.4995 45.9029 71.9995 42.2504 71.9995 39.9354C71.8729 39.1411 71.5832 38.3816 71.1487 37.7048C70.7141 37.028 70.1441 36.4486 69.4745 36.0029C67.1037 34.171 64.4286 32.7713 61.572 31.8679C54.5942 29.6789 47.3118 28.6172 39.9995 28.7229Z" fill="#00D8FF"/>
<path d="M25.799 71.1078C24.6328 71.1344 23.4803 70.8515 22.459 70.2878C18.879 68.2228 17.639 62.2678 19.1415 54.3553C20.8 46.7836 23.6703 39.5294 27.6415 32.8728C31.3692 26.1961 36.1402 20.1583 41.774 14.9878C44.2577 12.7255 47.1218 10.9203 50.234 9.65528C51.3603 9.12913 52.5884 8.85645 53.8315 8.85645C55.0747 8.85645 56.3027 9.12913 57.429 9.65528C61.1515 11.8003 62.384 18.3703 60.6465 26.8028C58.939 33.9643 56.1431 40.8215 52.3565 47.1353C48.7603 53.7333 44.1395 59.7186 38.6665 64.8678C36.0935 67.2197 33.1074 69.0751 29.859 70.3403C28.5589 70.8241 27.1861 71.0837 25.799 71.1078ZM30.2315 34.3578C26.4438 40.7321 23.6928 47.6677 22.0815 54.9053C20.699 62.1928 22.0265 66.5753 23.9565 67.6903C25.9565 68.8478 30.8115 67.7503 36.7065 62.6003C41.9319 57.6679 46.3424 51.9385 49.774 45.6253C53.4014 39.5891 56.0833 33.0331 57.7265 26.1853C59.3615 18.2478 57.949 13.3878 55.944 12.2328C55.1925 11.9453 54.3895 11.8166 53.5857 11.8549C52.782 11.8932 51.9949 12.0976 51.274 12.4553C48.5034 13.5989 45.956 15.2221 43.749 17.2503C38.3668 22.2033 33.8095 27.9835 30.249 34.3728L30.2315 34.3578Z" fill="#00D8FF"/>
<path d="M54.1912 71.1404C50.8037 71.1404 46.5012 69.0904 42.0212 65.2379C36.2894 60.0198 31.4378 53.9103 27.6537 47.1454C23.7315 40.5809 20.8839 33.4315 19.2187 25.9679C18.4983 22.684 18.3645 19.2985 18.8237 15.9679C18.9317 14.7328 19.3085 13.5363 19.9278 12.4623C20.5471 11.3882 21.3939 10.4626 22.4087 9.75044C26.1262 7.59794 32.4337 9.81044 38.8712 15.5254C44.2227 20.5809 48.7672 26.4272 52.3462 32.8604C56.2664 39.2716 59.1438 46.2645 60.8712 53.5779C61.624 56.9822 61.7401 60.4964 61.2137 63.9429C61.089 65.2141 60.6905 66.4432 60.0458 67.5458C59.4011 68.6484 58.5253 69.5983 57.4787 70.3304C56.4737 70.8861 55.3394 71.1656 54.1912 71.1404ZM30.2412 45.6404C33.8716 52.1053 38.506 57.9524 43.9712 62.9629C49.5937 67.8004 54.0537 68.8404 55.9712 67.7129C57.9712 66.5504 59.4462 61.8054 57.9262 54.1279C56.2614 47.1451 53.5014 40.47 49.7487 34.3504C46.3333 28.1932 41.9956 22.5951 36.8862 17.7504C30.8262 12.3704 25.9112 11.1679 23.9087 12.3279C23.2849 12.8354 22.773 13.4666 22.4051 14.1817C22.0372 14.8968 21.8214 15.6803 21.7712 16.4829C21.374 19.4532 21.5035 22.4702 22.1537 25.3954C23.7559 32.5328 26.4869 39.3688 30.2437 45.6454L30.2412 45.6404Z" fill="#00D8FF"/>
</svg>
