<svg width="80" height="80" viewBox="0 0 80 80" fill="none" xmlns="http://www.w3.org/2000/svg">
<g clip-path="url(#clip0_727_2284)">
<mask id="mask0_727_2284" style="mask-type:luminance" maskUnits="userSpaceOnUse" x="0" y="0" width="80" height="80">
<path d="M40 80C62.0914 80 80 62.0914 80 40C80 17.9086 62.0914 0 40 0C17.9086 0 0 17.9086 0 40C0 62.0914 17.9086 80 40 80Z" fill="white"/>
</mask>
<g mask="url(#mask0_727_2284)">
<path d="M40 80C62.0914 80 80 62.0914 80 40C80 17.9086 62.0914 0 40 0C17.9086 0 0 17.9086 0 40C0 62.0914 17.9086 80 40 80Z" fill="black"/>
<path d="M66.4481 70.0088L30.7297 24H24V55.9866H29.3837V30.8375L62.2219 73.2644C63.7015 72.2744 65.1134 71.1868 66.4481 70.0088Z" fill="url(#paint0_linear_727_2284)"/>
<path d="M51.1113 24H56.4448V56H51.1113V24Z" fill="url(#paint1_linear_727_2284)"/>
</g>
</g>
<defs>
<linearGradient id="paint0_linear_727_2284" x1="2385.52" y1="2801.77" x2="3803.03" y2="4558.72" gradientUnits="userSpaceOnUse">
<stop stop-color="white"/>
<stop offset="1" stop-color="white" stop-opacity="0"/>
</linearGradient>
<linearGradient id="paint1_linear_727_2284" x1="317.783" y1="24" x2="308.76" y2="2373.98" gradientUnits="userSpaceOnUse">
<stop stop-color="white"/>
<stop offset="1" stop-color="white" stop-opacity="0"/>
</linearGradient>
<clipPath id="clip0_727_2284">
<rect width="80" height="80" fill="white"/>
</clipPath>
</defs>
</svg>
