<svg width="63" height="63" viewBox="0 0 63 63" fill="none" xmlns="http://www.w3.org/2000/svg">
<circle cx="31.5159" cy="31.5477" r="30.5274" stroke="black" stroke-width="1.85014"/>
<path d="M35.519 45.8439C35.519 45.8439 35.519 42.3823 35.519 41.269C35.519 40.3083 35.7477 38.2801 34.7565 37.4566C36.8762 37.2584 38.5384 36.5721 40.0939 35.1692C41.6494 33.7662 42.3813 31.6465 42.3813 28.3068C42.3813 26.0194 42.0001 24.4944 40.8564 22.9694C41.2986 21.78 41.3749 19.9195 40.8564 18.3945C38.4774 18.3945 36.3272 20.0262 35.519 20.682C34.9243 20.5295 33.4908 19.9195 30.9441 19.9195C28.3974 19.9195 26.9639 20.5295 26.3692 20.682C25.561 20.0262 23.4108 18.3945 21.0318 18.3945C20.5133 19.9195 20.5896 21.78 21.0318 22.9694C19.8881 24.4944 19.5068 26.0194 19.5068 28.3068C19.5068 31.6465 20.2388 33.7662 21.7943 35.1692C23.3498 36.5721 25.012 37.2584 27.1317 37.4566C26.1404 38.2801 26.3692 40.3083 26.3692 41.269C26.3692 42.3823 26.3692 45.8439 26.3692 45.8439" stroke="black" stroke-width="3.13074" stroke-linecap="round" stroke-linejoin="round"/>
<path d="M26.369 42.794C24.2249 42.794 21.7941 42.0315 20.2692 42.0315C19.4579 42.0315 18.7442 42.0315 17.2192 41.269" stroke="black" stroke-width="3.13074" stroke-linecap="round" stroke-linejoin="round"/>
</svg>
