<svg width="80" height="80" viewBox="0 0 80 80" fill="none" xmlns="http://www.w3.org/2000/svg">
<g clip-path="url(#clip0_727_2191)">
<path d="M61.25 0H18.75C8.39466 0 0 8.39466 0 18.75V61.25C0 71.6053 8.39466 80 18.75 80H61.25C71.6053 80 80 71.6053 80 61.25V18.75C80 8.39466 71.6053 0 61.25 0Z" fill="#E14E1D"/>
<path d="M15.0005 11.875L17.6911 42.0603H52.288L51.127 55.0072L39.9877 58.0191L28.8692 55.0116L28.1258 46.6984H18.1067L19.5396 62.7237L39.9855 68.4025L60.4574 62.7237L63.202 32.0797H26.8205L25.9071 21.8578H64.1064L65.0005 11.875H15.0005Z" fill="white"/>
<path d="M40.0005 11.875H15.0005L17.6911 42.0603H40.0005V32.0797H26.8205L25.9071 21.8578H40.0005V11.875ZM40.0005 58.0147L39.9877 58.0191L28.8692 55.0116L28.1258 46.6984H18.1067L19.5396 62.7237L39.9855 68.4025L40.0008 68.3981L40.0005 58.0147Z" fill="#EBEBEB"/>
</g>
<defs>
<clipPath id="clip0_727_2191">
<rect width="80" height="80" fill="white"/>
</clipPath>
</defs>
</svg>
