<svg width="80" height="80" viewBox="0 0 80 80" fill="none" xmlns="http://www.w3.org/2000/svg">
<g clip-path="url(#clip0_671_798)">
<path d="M61.25 0H18.75C8.39466 0 0 8.39466 0 18.75V61.25C0 71.6053 8.39466 80 18.75 80H61.25C71.6053 80 80 71.6053 80 61.25V18.75C80 8.39466 71.6053 0 61.25 0Z" fill="#242938"/>
<mask id="mask0_671_798" style="mask-type:luminance" maskUnits="userSpaceOnUse" x="19" y="8" width="42" height="64">
<path d="M19.0669 8.74854H60.7419V71.2485H19.0669V8.74854Z" fill="white"/>
</mask>
<g mask="url(#mask0_671_798)">
<path d="M29.4867 71.248C35.2367 71.248 39.9033 66.5814 39.9033 60.8314V50.4146H29.4867C23.7367 50.4146 19.0698 55.0814 19.0698 60.8314C19.0698 66.5814 23.7367 71.248 29.4867 71.248Z" fill="#0ACF83"/>
<path d="M19.0698 39.9986C19.0698 34.2486 23.7367 29.582 29.4867 29.582H39.9033V50.4152H29.4867C23.7367 50.4152 19.0698 45.7486 19.0698 39.9986Z" fill="#A259FF"/>
<path d="M19.0698 19.1651C19.0698 13.4151 23.7367 8.74854 29.4867 8.74854H39.9033V29.582H29.4867C23.7367 29.582 19.0698 24.9151 19.0698 19.1651Z" fill="#F24E1E"/>
<path d="M39.9009 8.74854H50.3174C56.0674 8.74854 60.7343 13.4151 60.7343 19.1651C60.7343 24.9151 56.0674 29.582 50.3174 29.582H39.9009V8.74854Z" fill="#FF7262"/>
<path d="M60.7343 39.9986C60.7343 45.7486 56.0674 50.4152 50.3174 50.4152C44.5674 50.4152 39.9009 45.7486 39.9009 39.9986C39.9009 34.2486 44.5674 29.582 50.3174 29.582C56.0674 29.582 60.7343 34.2486 60.7343 39.9986Z" fill="#1ABCFE"/>
</g>
</g>
<defs>
<clipPath id="clip0_671_798">
<rect width="80" height="80" fill="white"/>
</clipPath>
</defs>
</svg>
