<svg width="80" height="80" viewBox="0 0 80 80" fill="none" xmlns="http://www.w3.org/2000/svg">
<rect width="80" height="80" rx="20" fill="white"/>
<path d="M40 20C31.1998 20 25.7017 24.4429 23.5 33.3325C26.799 28.889 30.6502 27.2228 35.049 28.3338C37.5606 28.9661 39.3555 30.8058 41.3432 32.8444C44.5782 36.1607 48.3227 40 56.5 40C65.2997 40 70.7983 35.5565 73 26.6649C69.7 31.1106 65.8502 32.7777 61.4505 31.6662C58.9394 31.0334 57.1466 29.1942 55.1563 27.1556C51.9233 23.8393 48.1799 20 40 20ZM23.5 40C14.7003 40 9.20172 44.4435 7 53.3351C10.2997 48.8893 14.1493 47.2222 18.549 48.3338C21.0606 48.9666 22.8555 50.8058 24.8432 52.8444C28.0782 56.1607 31.8227 60 40 60C48.7997 60 54.2983 55.5571 56.5 46.6675C53.2 51.1112 49.3502 52.7774 44.9505 51.6662C42.4394 51.0339 40.6466 49.1942 38.6563 47.1556C35.4233 43.8393 31.6799 40 23.5 40Z" fill="#38BDF8"/>
</svg>
