<svg width="80" height="80" viewBox="0 0 80 80" fill="none" xmlns="http://www.w3.org/2000/svg">
<g clip-path="url(#clip0_726_2016)">
<path d="M66.7188 0H13.2812C5.94622 0 0 6.08893 0 13.6V66.272C0 73.7831 5.94622 79.872 13.2812 79.872H66.7188C74.0538 79.872 80 73.7831 80 66.272V13.6C80 6.08893 74.0538 0 66.7188 0Z" fill="#330000"/>
<path d="M38.7681 47.9328H26.3712L23.8487 55.9561C23.8144 56.1025 23.7313 56.232 23.6137 56.3223C23.4961 56.4126 23.3514 56.4581 23.2046 56.4509H16.9256C16.5676 56.4509 16.4424 56.2493 16.5499 55.8461L27.2834 24.1923C27.3907 23.8627 27.498 23.4872 27.6053 23.0659C27.7459 22.3325 27.8178 21.5875 27.8199 20.8403C27.8126 20.788 27.8173 20.7347 27.8336 20.6847C27.8499 20.6346 27.8773 20.589 27.9138 20.5517C27.9502 20.5143 27.9947 20.4862 28.0436 20.4695C28.0925 20.4527 28.1445 20.4479 28.1956 20.4553H36.7287C36.9787 20.4553 37.1218 20.5471 37.1581 20.7305L49.3403 55.9011C49.4475 56.268 49.3403 56.4513 49.0184 56.4509H42.0415C41.9217 56.4643 41.8013 56.4326 41.7026 56.3619C41.6039 56.2911 41.5336 56.1861 41.5049 56.0662L38.7681 47.9328ZM28.3031 41.0086H36.7824L36.6615 40.6L36.4674 39.9529L36.329 39.4985L36.1081 38.783L35.6384 37.2768L35.2253 35.9414L34.1524 32.463C33.8854 31.5983 33.6291 30.7302 33.3837 29.8589L33.1874 29.1517L32.9581 28.3155L32.6081 27.0195L32.5424 26.7753H32.489C32.2204 28.0944 31.8934 29.4003 31.509 30.6889L30.7128 33.3117L30.2746 34.7606L29.8324 36.2275C29.7526 36.4925 29.673 36.7544 29.5934 37.0134L29.3559 37.7808L29.1196 38.5302L28.8846 39.2611L28.6509 39.9737C28.5734 40.2084 28.496 40.4399 28.4187 40.6681L28.3031 41.0086ZM56.5846 26.2806C56.0373 26.303 55.4915 26.207 54.9829 25.9986C54.4743 25.7903 54.0143 25.4744 53.6331 25.0717C53.2531 24.6512 52.9579 24.158 52.7645 23.6205C52.5711 23.083 52.4832 22.5116 52.5059 21.9392C52.4864 21.3725 52.5839 20.808 52.792 20.2825C53 19.757 53.314 19.2824 53.7134 18.8896C54.4837 18.1323 55.5096 17.7086 56.5774 17.7065L56.6918 17.7078C57.9799 17.7078 58.9908 18.1016 59.7243 18.8893C60.0945 19.2986 60.3821 19.7787 60.5709 20.3021C60.7597 20.8254 60.8458 21.3817 60.8243 21.9392C60.847 22.5139 60.7566 23.0875 60.5584 23.6257C60.3602 24.1639 60.0582 24.6557 59.6706 25.072C59.2793 25.4668 58.8149 25.7775 58.3046 25.9858C57.7943 26.1941 57.2485 26.2957 56.6993 26.2848L56.5846 26.2806ZM52.8815 55.9011V29.6329C52.8813 29.3031 53.0244 29.1382 53.3109 29.1382H59.9121C60.1982 29.1382 60.3413 29.3031 60.3415 29.6329V55.9011C60.3415 56.268 60.1984 56.4513 59.9121 56.4509H53.3646C53.0596 56.4509 52.8991 56.2864 52.8831 55.9574L52.8815 55.9011Z" fill="#FF9A00"/>
</g>
<defs>
<clipPath id="clip0_726_2016">
<rect width="80" height="80" fill="white"/>
</clipPath>
</defs>
</svg>
