<svg width="50" height="50" viewBox="0 0 50 50" fill="none" xmlns="http://www.w3.org/2000/svg">
<circle cx="25" cy="25" r="25" fill="#292D32"/>
<g clip-path="url(#clip0_770_846)">
<path d="M20.7181 40.0462C23.4727 40.0462 25.6949 37.824 25.6949 35.0694V30.0925H20.7181C17.9634 30.0925 15.7412 32.3148 15.7412 35.0694C15.7412 37.824 17.9634 40.0462 20.7181 40.0462Z" fill="#0ACF83"/>
<path d="M15.7412 25.1155C15.7412 22.3609 17.9634 20.1387 20.7181 20.1387H25.6949V30.0924H20.7181C17.9634 30.0924 15.7412 27.8702 15.7412 25.1155Z" fill="#A259FF"/>
<path d="M15.7412 15.1619C15.7412 12.4073 17.9634 10.1851 20.7181 10.1851H25.6949V20.1388H20.7181C17.9634 20.1388 15.7412 17.9165 15.7412 15.1619Z" fill="#F24E1E"/>
<path d="M25.6943 10.1851H30.6712C33.4258 10.1851 35.648 12.4073 35.648 15.1619C35.648 17.9165 33.4258 20.1388 30.6712 20.1388H25.6943V10.1851Z" fill="#FF7262"/>
<path d="M35.648 25.1155C35.648 27.8702 33.4258 30.0924 30.6712 30.0924C27.9166 30.0924 25.6943 27.8702 25.6943 25.1155C25.6943 22.3609 27.9166 20.1387 30.6712 20.1387C33.4258 20.1387 35.648 22.3609 35.648 25.1155Z" fill="#1ABCFE"/>
</g>
<defs>
<clipPath id="clip0_770_846">
<rect width="29.6296" height="29.6296" fill="white" transform="translate(10.1855 10.1851)"/>
</clipPath>
</defs>
</svg>
