<svg width="80" height="80" viewBox="0 0 80 80" fill="none" xmlns="http://www.w3.org/2000/svg">
<rect width="80" height="80" rx="20" fill="white"/>
<path d="M55.2498 24.1665C55.4564 25.3165 55.1898 26.4332 54.1231 26.5365L52.3498 26.8565L51.6164 54.5798C50.0564 55.4132 48.6364 55.8732 47.4664 55.8298C45.5764 55.7632 45.1198 55.1132 43.7664 53.1798L32.7464 33.3565L32.2464 52.1432L35.8731 53.1565C35.8731 53.1565 35.8131 55.4265 32.8731 55.3232L24.7398 55.5498C24.5198 55.0332 24.7898 53.7765 25.6231 53.5632L27.7564 52.9998L28.4131 28.1665L25.4798 27.8132C25.2731 26.6632 25.9098 25.0498 27.5531 24.9798L36.2764 24.6498L47.7598 44.7398L48.2231 27.3365L45.1698 26.8465C45.115 26.555 45.1236 26.2551 45.195 25.9672C45.2664 25.6793 45.399 25.4102 45.5837 25.178C45.7683 24.9459 46.0008 24.7563 46.2653 24.622C46.5298 24.4877 46.8201 24.412 47.1164 24.3998L55.2498 24.1665Z" fill="black"/>
<path fill-rule="evenodd" clip-rule="evenodd" d="M57.5269 9.44355C45.8781 8.15163 34.1223 8.15163 22.4735 9.44355C15.7669 10.1935 10.3502 15.4769 9.56354 22.2169C8.1839 34.0323 8.1839 45.9681 9.56354 57.7835C10.3502 64.5235 15.7635 69.8069 22.4735 70.5569C34.1224 71.8461 45.878 71.8461 57.5269 70.5569C64.2335 69.8069 69.6502 64.5235 70.4369 57.7835C71.8165 45.9681 71.8165 34.0323 70.4369 22.2169C69.6502 15.4769 64.2369 10.1935 57.5269 9.44355ZM23.0269 14.4102C34.3079 13.1592 45.6926 13.1592 56.9735 14.4102C61.4069 14.9102 64.9569 18.4069 65.4735 22.8002C66.8107 34.2279 66.8107 45.7725 65.4735 57.2002C65.2063 59.3504 64.222 61.3476 62.6797 62.8694C61.1374 64.3911 59.1271 65.3485 56.9735 65.5869C45.6926 66.8379 34.3079 66.8379 23.0269 65.5869C20.8733 65.3485 18.863 64.3911 17.3207 62.8694C15.7784 61.3476 14.7941 59.3504 14.5269 57.2002C13.1897 45.7725 13.1897 34.2279 14.5269 22.8002C14.7941 20.6501 15.7784 18.6528 17.3207 17.1311C18.863 15.6093 20.8733 14.6486 23.0269 14.4102Z" fill="black"/>
</svg>
