<svg width="63" height="63" viewBox="0 0 63 63" fill="none" xmlns="http://www.w3.org/2000/svg">
<circle cx="31.5477" cy="31.5477" r="30.5274" stroke="black" stroke-width="1.85014"/>
<path d="M30.9757 47.3687C39.3979 47.3687 46.2254 40.5412 46.2254 32.1191C46.2254 23.6969 39.3979 16.8694 30.9757 16.8694C22.5536 16.8694 15.7261 23.6969 15.7261 32.1191C15.7261 40.5412 22.5536 47.3687 30.9757 47.3687Z" stroke="black" stroke-width="2.3364" stroke-linecap="round" stroke-linejoin="round"/>
<path d="M46.2254 34.0469C44.7907 33.7787 43.3342 33.6439 41.8747 33.6443C33.7131 33.6443 26.4527 37.8258 21.8259 44.3191M41.6505 21.4446C36.8774 27.0366 29.707 30.5944 21.6887 30.5944C19.6361 30.5944 17.6399 30.3611 15.7261 29.9219" stroke="black" stroke-width="2.3364" stroke-linecap="round" stroke-linejoin="round"/>
<path d="M34.9678 47.3689C35.3561 45.4824 35.5513 43.5611 35.5503 41.635C35.5503 32.0064 30.7223 23.4986 23.3506 18.3945" stroke="black" stroke-width="2.3364" stroke-linecap="round" stroke-linejoin="round"/>
</svg>
