<svg width="80" height="80" viewBox="0 0 80 80" fill="none" xmlns="http://www.w3.org/2000/svg">
<g clip-path="url(#clip0_727_2141)">
<path d="M0.880859 0.879883H79.1209V79.1205H0.880859V0.879883Z" fill="#F0DB4F"/>
<path d="M72.716 60.46C72.1429 56.8907 69.8154 53.8925 62.921 51.0969C60.526 49.9963 57.856 49.2082 57.0604 47.3932C56.7779 46.3369 56.7404 45.7419 56.9191 45.1025C57.4322 43.0275 59.9091 42.3807 61.8722 42.9757C63.1366 43.3994 64.3335 44.3738 65.0554 45.9282C68.4316 43.7419 68.4247 43.7563 70.7822 42.2538C69.9191 40.9157 69.4585 40.2982 68.8935 39.7257C66.8629 37.4575 64.096 36.2894 59.671 36.3788L57.366 36.6769C55.1572 37.235 53.0522 38.3944 51.8179 39.9488C48.1141 44.1513 49.1704 51.5063 53.6772 54.5332C58.1172 57.8657 64.6397 58.6238 65.4729 61.74C66.2835 65.555 62.6691 66.79 59.0766 66.3513C56.4291 65.8007 54.9566 64.455 53.3647 62.0082C50.4347 63.7038 50.4347 63.7038 47.4222 65.4363C48.1366 66.9982 48.8872 67.705 50.0847 69.0582C55.7522 74.8069 69.9347 74.5244 72.4785 65.8232C72.5816 65.5244 73.2666 63.5319 72.716 60.46ZM43.4129 36.8394H36.0947L36.0647 55.7594C36.0647 59.7832 36.2729 63.4719 35.6185 64.6025C34.5479 66.8263 31.7735 66.5507 30.5091 66.1194C29.2222 65.4869 28.5679 64.5875 27.8097 63.3163C27.6016 62.9513 27.4454 62.6688 27.3929 62.6469L21.4429 66.2907C22.4322 68.3213 23.8897 70.0838 25.7566 71.2288C28.5454 72.9025 32.2935 73.4157 36.2135 72.5157C38.7647 71.7725 40.966 70.2332 42.1185 67.89C43.7847 64.8182 43.4272 61.1 43.4122 56.9875C43.4497 50.2782 43.4129 43.57 43.4129 36.8394Z" fill="#323330"/>
</g>
<defs>
<clipPath id="clip0_727_2141">
<rect width="80" height="80" rx="20" fill="white"/>
</clipPath>
</defs>
</svg>
